<svg viewBox="0 0 140 140" xmlns="http://www.w3.org/2000/svg" width="140" height="140">
  <!-- Background -->
  <circle cx="70" cy="70" r="70" fill="#e2ecf4"/>
  <!-- Shoulders / casual blue sweater -->
  <path d="M 0 140 Q 5 108 30 98 Q 48 91 70 93 Q 92 91 110 98 Q 135 108 140 140 Z" fill="#3b6b9c"/>
  <path d="M 0 140 Q 5 108 30 98 Q 48 91 70 93 Q 92 91 110 98 Q 135 108 140 140 Z" fill="#4a7db0" opacity="0.35"/>
  <!-- V-neck — casual, clean -->
  <path d="M 52 96 Q 58 95 64 96 L 70 106 L 76 96 Q 82 95 88 96" fill="#e2ecf4" stroke="none"/>
  <path d="M 52 96 Q 58 95 64 96 L 70 106 L 76 96 Q 82 95 88 96" fill="none" stroke="#2f5a85" stroke-width="1.5" stroke-linecap="round"/>
  <!-- Neck -->
  <rect x="61" y="82" width="18" height="15" rx="5" fill="#f5d0b2"/>
  <!-- Head -->
  <ellipse cx="70" cy="62" rx="29" ry="32" fill="#f5d0b2"/>
  <!-- Hair — short, dark, uniform with sideburns -->
  <path d="M 42 68 Q 40 58 41 48 Q 43 28 70 22 Q 97 28 99 48 Q 100 58 98 68 L 97 64 Q 97 56 94 46 Q 93 35 70 31 Q 47 35 46 46 Q 43 56 43 64 Z" fill="#1c1612"/>
  <!-- Ears — shaped with inner detail -->
  <ellipse cx="40" cy="66" rx="5" ry="6.5" fill="#edc5a3"/>
  <path d="M 38 62 Q 36.5 66 38 70" fill="none" stroke="#d4a07a" stroke-width="1" stroke-linecap="round"/>
  <ellipse cx="100" cy="66" rx="5" ry="6.5" fill="#edc5a3"/>
  <path d="M 102 62 Q 103.5 66 102 70" fill="none" stroke="#d4a07a" stroke-width="1" stroke-linecap="round"/>
  <!-- Eyebrows -->
  <path d="M 48 55 Q 54 52.5 61 54.5" stroke="#1c1612" stroke-width="2" fill="none" stroke-linecap="round"/>
  <path d="M 79 54.5 Q 86 52.5 92 55" stroke="#1c1612" stroke-width="2" fill="none" stroke-linecap="round"/>
  <!-- Eyes — no glasses, warm brown -->
  <ellipse cx="54" cy="62" rx="5" ry="3.5" fill="#ffffff"/>
  <ellipse cx="86" cy="62" rx="5" ry="3.5" fill="#ffffff"/>
  <circle cx="54" cy="62.5" r="3" fill="#3b2816"/>
  <circle cx="86" cy="62.5" r="3" fill="#3b2816"/>
  <circle cx="53" cy="61" r="1.5" fill="#000000"/>
  <circle cx="85" cy="61" r="1.5" fill="#000000"/>
  <circle cx="55" cy="61.2" r="0.9" fill="#ffffff" opacity="0.6"/>
  <circle cx="87" cy="61.2" r="0.9" fill="#ffffff" opacity="0.6"/>
  <!-- Nose -->
  <path d="M 70 68 Q 67 76 69 78 Q 70 79 71 78 Q 73 76 70 68" fill="none" stroke="#c8905e" stroke-width="1.3" stroke-linecap="round"/>
  <!-- Smile — warm, showing teeth, moderate -->
  <path d="M 59 83 Q 64 88 70 89 Q 76 88 81 83" stroke="#b07040" stroke-width="1.6" fill="none" stroke-linecap="round"/>
  <path d="M 61 84 Q 65 87 70 87.5 Q 75 87 79 84" fill="#ffffff"/>
  <path d="M 61 85.5 Q 70 91 79 85.5" fill="none" stroke="#b07050" stroke-width="1" stroke-linecap="round" opacity="0.35"/>
  <!-- Light stubble -->
  <g opacity="0.2" fill="#8a7060">
    <circle cx="60" cy="79" r="0.5"/><circle cx="63" cy="80" r="0.4"/>
    <circle cx="77" cy="80" r="0.4"/><circle cx="80" cy="79" r="0.5"/>
    <circle cx="65" cy="78" r="0.3"/><circle cx="75" cy="78" r="0.3"/>
  </g>
  <!-- Jawline -->
  <path d="M 42 70 Q 45 87 56 94" fill="none" stroke="#d0a880" stroke-width="0.7" opacity="0.25"/>
  <path d="M 98 70 Q 95 87 84 94" fill="none" stroke="#d0a880" stroke-width="0.7" opacity="0.25"/>
</svg>
