<svg viewBox="0 0 140 140" xmlns="http://www.w3.org/2000/svg" width="140" height="140">
  <!-- Background -->
  <circle cx="70" cy="70" r="70" fill="#e2e8f0"/>
  <!-- Shoulders / lavender button-down shirt -->
  <path d="M 0 140 Q 5 108 30 98 Q 48 91 70 93 Q 92 91 110 98 Q 135 108 140 140 Z" fill="#9b8ec4"/>
  <path d="M 0 140 Q 5 108 30 98 Q 48 91 70 93 Q 92 91 110 98 Q 135 108 140 140 Z" fill="#b8aed8" opacity="0.35"/>
  <!-- Shirt collar -->
  <path d="M 58 96 Q 62 93 66 96 L 70 102 L 74 96 Q 78 93 82 96" fill="#e2e8f0" stroke="none"/>
  <path d="M 58 96 Q 62 93 66 96 L 70 102 L 74 96 Q 78 93 82 96" fill="none" stroke="#7d72a8" stroke-width="1.3" stroke-linecap="round"/>
  <!-- Button placket -->
  <path d="M 69 102 L 69 130 L 71 130 L 71 102" fill="#8878b0" stroke="none"/>
  <circle cx="70" cy="108" r="1" fill="#6e5f9a"/>
  <circle cx="70" cy="115" r="1" fill="#6e5f9a"/>
  <circle cx="70" cy="122" r="1" fill="#6e5f9a"/>
  <!-- Neck -->
  <rect x="61" y="82" width="18" height="15" rx="5" fill="#f0c4a0"/>
  <!-- Head -->
  <ellipse cx="70" cy="62" rx="29" ry="32" fill="#f0c4a0"/>
  <!-- Bald head — very subtle hair stubble -->
  <ellipse cx="70" cy="46" rx="26" ry="18" fill="#f0c4a0"/>
  <path d="M 44 52 Q 46 30 70 26 Q 94 30 96 52" fill="none" stroke="#c4a880" stroke-width="0.5" opacity="0.2"/>
  <!-- Ears -->
  <ellipse cx="40" cy="66" rx="5" ry="6.5" fill="#e8b894"/>
  <path d="M 38 62 Q 36.5 66 38 70" fill="none" stroke="#d4a07a" stroke-width="1" stroke-linecap="round"/>
  <ellipse cx="100" cy="66" rx="5" ry="6.5" fill="#e8b894"/>
  <path d="M 102 62 Q 103.5 66 102 70" fill="none" stroke="#d4a07a" stroke-width="1" stroke-linecap="round"/>
  <!-- Eyebrows -->
  <path d="M 49 54 Q 54 51.5 61 53.5" stroke="#3d2e1e" stroke-width="2.2" fill="none" stroke-linecap="round"/>
  <path d="M 79 53.5 Q 86 51.5 91 54" stroke="#3d2e1e" stroke-width="2.2" fill="none" stroke-linecap="round"/>
  <!-- Eyes — dark brown -->
  <ellipse cx="55" cy="61" rx="5" ry="3.5" fill="#ffffff"/>
  <ellipse cx="85" cy="61" rx="5" ry="3.5" fill="#ffffff"/>
  <circle cx="55" cy="61.5" r="3" fill="#2a1a0e"/>
  <circle cx="85" cy="61.5" r="3" fill="#2a1a0e"/>
  <circle cx="54" cy="60" r="1.5" fill="#000000"/>
  <circle cx="84" cy="60" r="1.5" fill="#000000"/>
  <circle cx="56" cy="60.2" r="0.9" fill="#ffffff" opacity="0.6"/>
  <circle cx="86" cy="60.2" r="0.9" fill="#ffffff" opacity="0.6"/>
  <!-- Nose -->
  <path d="M 70 66 Q 67 74 69 76 Q 70 77 71 76 Q 73 74 70 66" fill="none" stroke="#d4a07a" stroke-width="1.3" stroke-linecap="round"/>
  <!-- Full beard — dark, thin, stays inside jawline -->
  <!-- Main beard shape — cheeks + jaw + chin, pulled inward from face edge -->
  <path d="M 52 76 Q 51 80 51 85 Q 52 89 57 92 Q 63 94 70 95 Q 77 94 83 92 Q 88 89 89 85 Q 89 80 88 76 Q 86 74 84 76 Q 82 78 82 80 L 82 82 Q 78 79 70 79 Q 62 79 58 82 L 58 80 Q 58 78 56 76 Q 54 74 52 76 Z" fill="#3d2e1e"/>
  <!-- Subtle highlight for depth -->
  <path d="M 53 78 Q 52 82 52 86 Q 53 89 57 91 Q 63 93 70 94 Q 77 93 83 91 Q 87 89 88 86 Q 88 82 87 78 Q 85 76 83 78 Q 82 80 82 82 Q 78 79 70 79 Q 62 79 58 82 Q 58 80 57 78 Q 55 76 53 78 Z" fill="#4a3320" opacity="0.4"/>
  <!-- Mustache -->
  <path d="M 58 79 Q 62 77 66 78 Q 68 78.5 70 79 Q 72 78.5 74 78 Q 78 77 82 79 L 82 81 Q 78 79.5 74 80 Q 72 80.5 70 81 Q 68 80.5 66 80 Q 62 79.5 58 81 Z" fill="#2a1a0e"/>
  <!-- Smile — on top of beard -->
  <path d="M 59 82 Q 64 88 70 89 Q 76 88 81 82" stroke="#a07050" stroke-width="1.6" fill="none" stroke-linecap="round"/>
  <path d="M 61 83 Q 65 86.5 70 87 Q 75 86.5 79 83" fill="#ffffff"/>
  <path d="M 61 85 Q 70 91 79 85" fill="none" stroke="#a07050" stroke-width="1" stroke-linecap="round" opacity="0.35"/>
<!-- Jawline -->
  <path d="M 42 70 Q 45 87 56 94" fill="none" stroke="#c8a880" stroke-width="0.7" opacity="0.25"/>
  <path d="M 98 70 Q 95 87 84 94" fill="none" stroke="#c8a880" stroke-width="0.7" opacity="0.25"/>
</svg>
